<mxfile host="app.diagrams.net" agent="Mozilla/5.0 (Windows NT 10.0; Win64; x64) AppleWebKit/537.36 (KHTML, like Gecko) Chrome/131.0.0.0 Safari/537.36" version="25.0.3">
  <diagram name="Page-1" id="pifKmiu__jl73rb1DBGU">
    <mxGraphModel dx="965" dy="510" grid="1" gridSize="10" guides="1" tooltips="1" connect="1" arrows="1" fold="1" page="1" pageScale="1" pageWidth="850" pageHeight="1100" math="0" shadow="0">
      <root>
        <mxCell id="0" />
        <mxCell id="1" parent="0" />
        <mxCell id="olDPmI06jH5whQxWF3Jd-3" value="" style="edgeStyle=orthogonalEdgeStyle;rounded=0;orthogonalLoop=1;jettySize=auto;html=1;" edge="1" parent="1" source="olDPmI06jH5whQxWF3Jd-1" target="olDPmI06jH5whQxWF3Jd-2">
          <mxGeometry relative="1" as="geometry" />
        </mxCell>
        <mxCell id="olDPmI06jH5whQxWF3Jd-1" value="เริ่ม" style="strokeWidth=2;html=1;shape=mxgraph.flowchart.start_1;whiteSpace=wrap;" vertex="1" parent="1">
          <mxGeometry x="325" y="60" width="100" height="60" as="geometry" />
        </mxCell>
        <mxCell id="olDPmI06jH5whQxWF3Jd-7" value="" style="edgeStyle=orthogonalEdgeStyle;rounded=0;orthogonalLoop=1;jettySize=auto;html=1;" edge="1" parent="1" source="olDPmI06jH5whQxWF3Jd-11" target="olDPmI06jH5whQxWF3Jd-6">
          <mxGeometry relative="1" as="geometry" />
        </mxCell>
        <mxCell id="olDPmI06jH5whQxWF3Jd-2" value="กำหนดตัวแปรอาเรย์" style="whiteSpace=wrap;html=1;strokeWidth=2;" vertex="1" parent="1">
          <mxGeometry x="315" y="200" width="120" height="60" as="geometry" />
        </mxCell>
        <mxCell id="olDPmI06jH5whQxWF3Jd-9" value="" style="edgeStyle=orthogonalEdgeStyle;rounded=0;orthogonalLoop=1;jettySize=auto;html=1;" edge="1" parent="1" source="olDPmI06jH5whQxWF3Jd-6" target="olDPmI06jH5whQxWF3Jd-8">
          <mxGeometry relative="1" as="geometry" />
        </mxCell>
        <mxCell id="olDPmI06jH5whQxWF3Jd-15" style="edgeStyle=orthogonalEdgeStyle;rounded=0;orthogonalLoop=1;jettySize=auto;html=1;entryX=0.5;entryY=0;entryDx=0;entryDy=0;" edge="1" parent="1" source="olDPmI06jH5whQxWF3Jd-6" target="olDPmI06jH5whQxWF3Jd-16">
          <mxGeometry relative="1" as="geometry">
            <mxPoint x="380" y="760" as="targetPoint" />
            <Array as="points">
              <mxPoint x="501" y="415" />
              <mxPoint x="501" y="700" />
              <mxPoint x="375" y="700" />
            </Array>
          </mxGeometry>
        </mxCell>
        <mxCell id="olDPmI06jH5whQxWF3Jd-6" value="รับค่าตัวอักษรไปเรื่อยๆเจอ Y y ไหม" style="rhombus;whiteSpace=wrap;html=1;strokeWidth=2;" vertex="1" parent="1">
          <mxGeometry x="270" y="330" width="210" height="170" as="geometry" />
        </mxCell>
        <mxCell id="olDPmI06jH5whQxWF3Jd-10" style="edgeStyle=orthogonalEdgeStyle;rounded=0;orthogonalLoop=1;jettySize=auto;html=1;entryX=0;entryY=0.5;entryDx=0;entryDy=0;entryPerimeter=0;" edge="1" parent="1" source="olDPmI06jH5whQxWF3Jd-8" target="olDPmI06jH5whQxWF3Jd-11">
          <mxGeometry relative="1" as="geometry">
            <mxPoint x="360" y="290" as="targetPoint" />
            <Array as="points">
              <mxPoint x="375" y="670" />
              <mxPoint x="250" y="670" />
              <mxPoint x="250" y="290" />
            </Array>
          </mxGeometry>
        </mxCell>
        <mxCell id="olDPmI06jH5whQxWF3Jd-8" value="กรอกตัวอักษร" style="shape=parallelogram;perimeter=parallelogramPerimeter;whiteSpace=wrap;html=1;fixedSize=1;strokeWidth=2;" vertex="1" parent="1">
          <mxGeometry x="315" y="550" width="120" height="60" as="geometry" />
        </mxCell>
        <mxCell id="olDPmI06jH5whQxWF3Jd-12" value="" style="edgeStyle=orthogonalEdgeStyle;rounded=0;orthogonalLoop=1;jettySize=auto;html=1;" edge="1" parent="1" source="olDPmI06jH5whQxWF3Jd-2" target="olDPmI06jH5whQxWF3Jd-11">
          <mxGeometry relative="1" as="geometry">
            <mxPoint x="375" y="260" as="sourcePoint" />
            <mxPoint x="375" y="330" as="targetPoint" />
          </mxGeometry>
        </mxCell>
        <mxCell id="olDPmI06jH5whQxWF3Jd-11" value="" style="verticalLabelPosition=bottom;verticalAlign=top;html=1;shape=mxgraph.flowchart.on-page_reference;" vertex="1" parent="1">
          <mxGeometry x="365" y="280" width="20" height="20" as="geometry" />
        </mxCell>
        <mxCell id="olDPmI06jH5whQxWF3Jd-13" value="ไม่จริง" style="text;html=1;align=center;verticalAlign=middle;whiteSpace=wrap;rounded=0;" vertex="1" parent="1">
          <mxGeometry x="325" y="490" width="60" height="30" as="geometry" />
        </mxCell>
        <mxCell id="olDPmI06jH5whQxWF3Jd-14" value="จริง" style="text;html=1;align=center;verticalAlign=middle;whiteSpace=wrap;rounded=0;" vertex="1" parent="1">
          <mxGeometry x="450" y="370" width="60" height="30" as="geometry" />
        </mxCell>
        <mxCell id="olDPmI06jH5whQxWF3Jd-18" value="" style="edgeStyle=orthogonalEdgeStyle;rounded=0;orthogonalLoop=1;jettySize=auto;html=1;" edge="1" parent="1" source="olDPmI06jH5whQxWF3Jd-16" target="olDPmI06jH5whQxWF3Jd-17">
          <mxGeometry relative="1" as="geometry" />
        </mxCell>
        <mxCell id="olDPmI06jH5whQxWF3Jd-16" value="แสดงค่าตัวอักษรทั้งหมด" style="shape=parallelogram;perimeter=parallelogramPerimeter;whiteSpace=wrap;html=1;fixedSize=1;strokeWidth=2;" vertex="1" parent="1">
          <mxGeometry x="315" y="790" width="120" height="60" as="geometry" />
        </mxCell>
        <mxCell id="olDPmI06jH5whQxWF3Jd-17" value="จบ" style="strokeWidth=2;html=1;shape=mxgraph.flowchart.start_1;whiteSpace=wrap;" vertex="1" parent="1">
          <mxGeometry x="325" y="910" width="100" height="60" as="geometry" />
        </mxCell>
      </root>
    </mxGraphModel>
  </diagram>
</mxfile>
